<svg width="28" height="28" viewBox="0 0 28 28" fill="none" xmlns="http://www.w3.org/2000/svg">
<path d="M11.3332 20.6667L4.6665 14.0001L6.5465 12.1067L11.3332 16.8934L21.4532 6.77341L23.3332 8.66675L11.3332 20.6667ZM13.9998 0.666748C12.2489 0.666748 10.5151 1.01162 8.89739 1.68169C7.27972 2.35175 5.80986 3.33388 4.57175 4.57199C2.07126 7.07248 0.666504 10.4639 0.666504 14.0001C0.666504 17.5363 2.07126 20.9277 4.57175 23.4282C5.80986 24.6663 7.27972 25.6484 8.89739 26.3185C10.5151 26.9885 12.2489 27.3334 13.9998 27.3334C17.5361 27.3334 20.9274 25.9287 23.4279 23.4282C25.9284 20.9277 27.3332 17.5363 27.3332 14.0001C27.3332 12.2491 26.9883 10.5153 26.3182 8.89764C25.6482 7.27996 24.666 5.81011 23.4279 4.57199C22.1898 3.33388 20.72 2.35175 19.1023 1.68169C17.4846 1.01162 15.7508 0.666748 13.9998 0.666748Z" fill="#0073AD"/>
</svg>
