<svg width="48" height="48" viewBox="0 0 48 48" fill="none" xmlns="http://www.w3.org/2000/svg">
<path d="M1.5 15H21L22.5 18H3L1.5 15ZM3.5 21H23L24.5 24H5L3.5 21Z" fill="#74C6B4"/>
<path d="M36 37C37.66 37 39 35.66 39 34C39 32.34 37.66 31 36 31C34.34 31 33 32.34 33 34C33 35.66 34.34 37 36 37ZM39 19H34V24H42.92L39 19ZM16 37C17.66 37 19 35.66 19 34C19 32.34 17.66 31 16 31C14.34 31 13 32.34 13 34C13 35.66 14.34 37 16 37ZM40 16L46 24V34H42C42 37.32 39.32 40 36 40C32.68 40 30 37.32 30 34H22C22 37.32 19.3 40 16 40C12.68 40 10 37.32 10 34H6V27H10V30H11.52C12.62 28.78 14.22 28 16 28C17.78 28 19.38 28.78 20.48 30H30V12H6C6 9.78 7.78 8 10 8H34V16H40Z" fill="#0073AD"/>
</svg>
