<svg width="48" height="48" viewBox="0 0 48 48" fill="none" xmlns="http://www.w3.org/2000/svg">
<g clip-path="url(#clip0)">
<path fill-rule="evenodd" clip-rule="evenodd" d="M20.9105 8.53353L23.8322 10.0186V2.48279H16.856V10.0186L19.7748 8.53517C20.1192 8.3605 20.5391 8.34638 20.9105 8.53353Z" fill="#0073AD"/>
<path fill-rule="evenodd" clip-rule="evenodd" d="M38.2049 17.7162V3.74356C38.2049 3.04718 37.6405 2.48279 36.9441 2.48279H26.3536V12.0699C26.3536 12.9764 25.3863 13.6741 24.4417 13.1495L20.3439 11.0672L16.1613 13.1928C15.3218 13.618 14.3365 12.9975 14.3372 12.0699L14.3342 2.48279H3.74369C3.0473 2.48279 2.48291 3.04718 2.48291 3.74356V36.944C2.48291 37.6404 3.0473 38.2048 3.74369 38.2048H17.7163C16.161 34.3725 16.1774 30.1099 17.7596 26.2904C21.0682 18.3026 30.1931 14.4648 38.2049 17.7162Z" fill="#0073AD"/>
<path fill-rule="evenodd" clip-rule="evenodd" d="M41.646 22.9543C39.2541 20.5624 35.9498 19.083 32.3001 19.083C28.6505 19.083 25.3462 20.5624 22.9543 22.9543C20.5624 25.3462 19.083 28.6505 19.083 32.3001C19.083 35.9498 20.5624 39.2541 22.9543 41.646C25.3462 44.0378 28.6505 45.5173 32.3001 45.5173C35.9498 45.5173 39.2541 44.0378 41.646 41.646C44.0378 39.2541 45.5173 35.9498 45.5173 32.3001C45.5173 28.6505 44.0378 25.3462 41.646 22.9543ZM37.6151 36.4387C36.7326 37.3213 35.5135 37.8686 34.17 37.8686H28.2867C27.5903 37.8686 27.0259 37.3042 27.0259 36.6078C27.0259 35.9114 27.5903 35.347 28.2867 35.347H34.17C35.4649 35.347 36.5237 34.2882 36.5237 32.9932C36.5237 32.2929 36.3051 31.72 35.8323 31.2475C35.4058 30.8207 34.8174 30.5561 34.17 30.5561H30.6578L31.4068 31.3037C31.8993 31.7932 31.9016 32.5894 31.412 33.0816C30.9225 33.5741 30.1263 33.576 29.6341 33.0865L26.737 30.1949C26.2445 29.7054 26.2425 28.9095 26.732 28.417L29.6236 25.5202C30.1132 25.028 30.909 25.0257 31.4015 25.5153C31.8937 26.0048 31.896 26.8007 31.4064 27.2932L30.6664 28.0345H34.17C36.857 28.0345 39.0453 30.2228 39.0453 32.9098C39.0453 34.3092 38.543 35.5109 37.6151 36.4387Z" fill="#74C6B4"/>
</g>
<defs>
<clipPath id="clip0">
<rect width="43.0345" height="43.0345" fill="white" transform="translate(2.48291 2.48279)"/>
</clipPath>
</defs>
</svg>
