<svg width="48" height="48" viewBox="0 0 48 48" fill="none" xmlns="http://www.w3.org/2000/svg">
<g clip-path="url(#clip0)">
<path d="M14.76 21.3847C16.9581 26.2356 21.664 28.3471 23.9999 28.3471C25.5357 28.3471 28.0962 27.4335 30.2948 25.4293C29.4909 25.4854 28.6317 25.5139 27.7136 25.5139C27.4981 25.5139 27.2721 25.5119 27.0306 25.5081C26.5677 25.8646 25.9944 26.0655 25.3994 26.0655H23.4431C21.9688 26.0655 20.7695 24.8662 20.7695 23.3919C20.7695 21.9176 21.9688 20.7183 23.4431 20.7183H25.3994C26.1061 20.7183 26.7671 20.9937 27.2574 21.4689C27.4203 21.4707 27.5808 21.4715 27.7383 21.4715C30.2638 21.4715 31.9281 21.2399 33.0168 20.9605C32.8756 20.6168 32.7986 20.2408 32.7986 19.8483V13.0694C32.7986 12.3642 33.0604 11.6883 33.513 11.1661C33.2714 9.28605 32.8331 7.85077 32.1789 6.79202C30.8309 4.61022 28.2319 3.59412 23.9999 3.59412C20.4891 3.59412 18.0647 4.3229 16.5883 5.82209C15.4439 6.98426 14.7807 8.64256 14.4707 11.147C14.9334 11.6712 15.2011 12.3541 15.2011 13.0694V19.8483C15.2012 20.4123 15.0391 20.9387 14.76 21.3847Z" fill="#0073AD"/>
<path d="M9.95013 21.4485H12.2969C13.1804 21.4485 13.8972 20.732 13.8972 19.8481V13.0693C13.8972 12.4787 13.5765 11.9642 13.1007 11.687C13.6247 6.13614 15.7667 2.28966 24.0002 2.28966C28.7283 2.28966 31.6798 3.50257 33.2887 6.10641C34.2249 7.62163 34.6752 9.57872 34.8856 11.6953C34.4174 11.9745 34.103 12.4845 34.103 13.0692V19.848C34.103 20.6101 34.6362 21.2464 35.3495 21.4077C34.315 22.0843 32.1732 22.7754 27.7385 22.7754C27.3794 22.7754 27.0049 22.7709 26.615 22.7615C26.3867 22.3226 25.9287 22.0222 25.3997 22.0222H23.4435C22.6874 22.0222 22.0741 22.6354 22.0741 23.3917C22.0741 24.148 22.6874 24.7611 23.4435 24.7611H25.3997C25.8567 24.7611 26.2605 24.5364 26.5091 24.1924C26.9209 24.2029 27.3242 24.2094 27.7139 24.2094C32.7126 24.2093 35.8903 23.3561 37.1773 21.6632C37.2321 21.5912 37.282 21.5195 37.3276 21.4485H38.0505C38.9341 21.4485 39.6507 20.732 39.6507 19.8481V13.0693C39.6507 12.1856 38.9342 11.469 38.0505 11.469H37.1678C36.9195 8.91175 36.369 6.73477 35.2367 4.90263C33.1985 1.60365 29.5227 0 24 0C18.477 0 14.8016 1.60365 12.7633 4.90276C11.6311 6.7349 11.0809 8.91162 10.8324 11.4692H9.95C9.06614 11.4692 8.34961 12.1856 8.34961 13.0694V19.8483C8.34961 20.732 9.06627 21.4485 9.95013 21.4485Z" fill="#74C6B4"/>
<path d="M43.3475 41.3822C42.8154 38.0738 41.72 33.8122 39.5231 32.298C38.0251 31.265 32.7952 28.4707 30.562 27.2776L30.5151 27.2526C30.2594 27.116 29.9476 27.1434 29.7198 27.3222C28.5482 28.2418 27.2656 28.8613 25.9078 29.1635C25.6679 29.2168 25.4708 29.3876 25.3836 29.6174L23.9999 33.264L22.6163 29.6174C22.529 29.3874 22.332 29.2168 22.092 29.1635C20.7342 28.8613 19.4514 28.2418 18.2797 27.3222C18.052 27.1433 17.74 27.1159 17.4845 27.2526C15.2762 28.4324 9.9787 31.2853 8.48304 32.2936C5.95302 33.998 4.8481 40.1637 4.65234 41.3823C4.63291 41.5032 4.64412 41.6269 4.68495 41.7421C4.77546 41.9978 7.09616 48.0001 23.9998 48.0001C40.9032 48.0001 43.2241 41.9978 43.3148 41.7423C43.3557 41.6267 43.3669 41.503 43.3475 41.3822ZM35.4769 37.583H28.7819V36.1731H35.4769V37.583Z" fill="#0073AD"/>
</g>
<defs>
<clipPath id="clip0">
<rect width="48" height="48" fill="white"/>
</clipPath>
</defs>
</svg>
